<svg id="logo" xmlns="http://www.w3.org/2000/svg" xmlns:xlink="http://www.w3.org/1999/xlink" width="138.759" height="19.704" viewBox="0 0 138.759 19.704">
  <defs>
    <linearGradient id="linear-gradient" x1="0.722" x2="0.175" y2="1" gradientUnits="objectBoundingBox">
      <stop offset="0" stop-color="#33d35e"/>
      <stop offset="1" stop-color="#2ab6d9"/>
    </linearGradient>
  </defs>
  <path id="Path_1" data-name="Path 1" d="M37.754,15.847a5.987,5.987,0,0,0,5.952-4.216h-3.9A2.282,2.282,0,0,1,37.754,12.7a2.206,2.206,0,0,1-2.32-1.978h8.44a7.2,7.2,0,0,0,.081-1.037,5.9,5.9,0,0,0-6.2-5.95,5.93,5.93,0,0,0-6.175,6.049,5.963,5.963,0,0,0,6.175,6.066ZM40.1,8.55H35.5A2.2,2.2,0,0,1,37.754,6.8,2.285,2.285,0,0,1,40.1,8.551Zm10.946,7.3a5.382,5.382,0,0,0,3.43-1.188l.336.8h3.027V4.093H54.918l-.4.88a5.394,5.394,0,0,0-3.474-1.222,5.768,5.768,0,0,0-5.961,6.026,5.8,5.8,0,0,0,5.961,6.07Zm.524-3.467a2.5,2.5,0,0,1-2.545-2.593,2.545,2.545,0,1,1,5.089,0,2.5,2.5,0,0,1-2.544,2.593Zm13.123,3.467c3.02,0,5.025-1.554,5.025-3.93,0-2.883-2.387-3.256-4.183-3.575-1.08-.193-1.95-.344-1.95-.99,0-.527.422-.838,1.05-.838.71,0,1.2.337,1.2,1.063H69.5c-.044-2.3-1.92-3.843-4.816-3.843-2.912,0-4.854,1.47-4.854,3.75,0,2.757,2.337,3.289,4.1,3.574,1.092.181,1.952.368,1.952,1.024,0,.587-.543.88-1.116.88a1.171,1.171,0,0,1-1.32-1.214h-3.77c.036,2.463,1.919,4.1,5.018,4.1Zm8.1,3.858c2.936,0,4.344-1.257,5.877-4.736L83.432,4.105H79.226l-2.249,6.263L74.565,4.105H70.31l4.7,10.43c-.53,1.414-.983,1.8-2.48,1.8H71.45V19.7Zm18.5-3.858A5.776,5.776,0,0,0,97.268,9.8,5.775,5.775,0,0,0,91.295,3.75a5.332,5.332,0,0,0-2.825.784V0H84.6V15.474h2.9l.37-.844A5.278,5.278,0,0,0,91.3,15.846Zm-.523-3.467A2.5,2.5,0,0,1,88.227,9.8a2.545,2.545,0,1,1,5.089,0,2.5,2.5,0,0,1-2.544,2.58Zm13.6,3.467a5.382,5.382,0,0,0,3.43-1.188l.336.8h3.027V4.093h-2.918l-.4.88a5.392,5.392,0,0,0-3.474-1.222,5.767,5.767,0,0,0-5.96,6.026,5.8,5.8,0,0,0,5.96,6.07Zm.524-3.467a2.5,2.5,0,0,1-2.545-2.593,2.545,2.545,0,1,1,5.09,0,2.5,2.5,0,0,1-2.545,2.593Zm12.653,3.1V9.4c0-1.447.7-2.3,1.923-2.3.986,0,1.483.657,1.483,1.98v6.39h3.915V8.543c0-2.9-1.733-4.773-4.373-4.773a4.73,4.73,0,0,0-3.58,1.508l-.537-1.172h-2.747V15.475h3.916Zm13.748,0V10.666l2.848,4.808h4.616l-3.9-5.95L138.4,4.105H134L131.3,8.559V0h-3.916V15.474H131.3Z" fill="#fff"/>
  <g id="Group_1" data-name="Group 1">
    <path id="Path_2" data-name="Path 2" d="M10.8,0,0,19.7H5.986L16.789,0Z" fill-rule="evenodd" fill="url(#linear-gradient)"/>
    <path id="Path_3" data-name="Path 3" d="M18.171,0,7.368,19.7h5.986L24.157,0Z" fill-rule="evenodd" opacity="0.5" fill="url(#linear-gradient)"/>
    <path id="Path_4" data-name="Path 4" d="M25.539,0l-10.8,19.7h5.986L31.525,0Z" fill-rule="evenodd" opacity="0.15" fill="url(#linear-gradient)"/>
  </g>
</svg>
